<?xml version="1.0" encoding="UTF-8"?>
<svg width="23px" height="23px" viewBox="0 0 23 23" version="1.1" xmlns="http://www.w3.org/2000/svg" xmlns:xlink="http://www.w3.org/1999/xlink">
    <title>icon/tab/首页/1</title>
    <defs>
        <path d="M9.99699637,21.4478623 L9.99699637,15.9862424 C9.99699637,15.2059405 10.636737,14.5733032 11.4262997,14.5733032 L12.7737003,14.5733032 C13.5627636,14.5733032 14.2030036,15.2059405 14.2030036,15.9862424 L14.2030036,21.4478623" id="path-1"></path>
    </defs>
    <g id="新农云创/一期" stroke="none" stroke-width="1" fill="none" fill-rule="evenodd">
        <g id="工作平台-申请券-确定反馈" transform="translate(-31.000000, -909.000000)">
            <g id="编组-6" transform="translate(0.000000, 900.000000)">
                <g id="icon/tab/首页/2" transform="translate(30.000000, 8.000000)">
                    <g id="logo/首页/2备份">
                        <rect id="矩形" x="0" y="0" width="24" height="24"></rect>
                        <ellipse id="椭圆形" fill-opacity="0.5" fill="#FFDFD5" cx="12" cy="20.5" rx="11" ry="3.5"></ellipse>
                        <path d="M22.309381,10.0273035 L12.7122732,2 C12.3666834,1.68392832 11.8328172,1.68392832 11.4877268,2 L1.89061902,10.0273035 C1.28933278,10.5779596 1.68336504,11.5721039 2.50289222,11.5721039 L4.59041424,11.5721039 C4.75621742,11.5721039 4.89055795,11.7054466 4.89055795,11.8694088 L4.89055795,20.217652 C4.89055795,21.201919 5.69759995,22 6.69291846,22 L9.43865914,22 C9.74729278,22 9.99699637,21.7525751 9.99699637,21.4478623 L9.99699637,15.9862424 C9.99699637,15.2059405 10.636737,14.5733032 11.4262997,14.5733032 L12.7737003,14.5733032 C13.5627636,14.5733032 14.2030036,15.2059405 14.2030036,15.9862424 L14.2030036,21.4478623 C14.2030036,21.7525751 14.4527072,22 14.7608415,22 L17.5070815,22 C18.5024,22 19.309442,21.201919 19.309442,20.217652 L19.309442,11.8694088 C19.309442,11.7054466 19.4437826,11.5721039 19.6095858,11.5721039 L21.6971078,11.5721039 C22.516635,11.5721039 22.9106672,10.5779596 22.309381,10.0273035 Z" id="Stroke-15" stroke="#F03520" stroke-linejoin="round"></path>
                        <g id="Stroke-15" stroke-linejoin="round">
                            <use stroke="#FF5252" xlink:href="#path-1"></use>
                            <use stroke="#FFD7C9" xlink:href="#path-1"></use>
                            <use stroke="#FFA94D" xlink:href="#path-1"></use>
                        </g>
                    </g>
                </g>
            </g>
        </g>
    </g>
</svg>