<?xml version="1.0" encoding="UTF-8"?>
<svg width="24px" height="22px" viewBox="0 0 24 22" version="1.1" xmlns="http://www.w3.org/2000/svg" xmlns:xlink="http://www.w3.org/1999/xlink">
    <title>icon/tab/创客助力/1</title>
    <defs>
        <rect id="path-1" x="0" y="0" width="24" height="24"></rect>
    </defs>
    <g id="新农云创/一期" stroke="none" stroke-width="1" fill="none" fill-rule="evenodd">
        <g id="工作平台-申请券-确定反馈" transform="translate(-125.000000, -909.000000)">
            <g id="编组-6" transform="translate(0.000000, 900.000000)">
                <g id="icon/tab/创客助力/1" transform="translate(125.000000, 8.000000)">
                    <g id="编组-9">
                        <mask id="mask-2" fill="white">
                            <use xlink:href="#path-1"></use>
                        </mask>
                        <g id="蒙版"></g>
                        <g mask="url(#mask-2)">
                            <g transform="translate(0.500000, 1.000000)">
                                <path d="M11.4364949,3.99896442 C10.2843389,3.10767875 9.32564345,2.44645358 8.8236366,2.18216458 C7.36682302,1.41520333 6.7928021,0.906332004 5.49434785,2.18216458 L0.703150007,6.71058583 C-0.351803983,7.3887182 -0.219677077,8.45788346 1.09953073,9.91808159 C3.07834243,12.1083788 2.63496493,13.2657609 4.0442499,14.4331734 C4.9837732,15.2114483 8.78845208,18.7389669 10.8213037,20.5447113 C12.8715331,22.365892 14.7129921,19.8127215 19.6283196,14.4331734 C20.9833576,12.9501609 17.4702211,9.13972268 14.0311637,6.1350432" id="路径" stroke="#333333"></path>
                                <line x1="11.2771567" y1="16.1845881" x2="14.4659094" y2="19.4000983" id="路径-7" stroke="#333333" stroke-linecap="round"></line>
                                <line x1="13.521035" y1="14.4605858" x2="16.271035" y2="17.2105858" id="路径-7备份" stroke="#333333" stroke-linecap="round"></line>
                                <line x1="15.646035" y1="12.5855858" x2="18.396035" y2="15.3355858" id="路径-7备份-2" stroke="#333333" stroke-linecap="round"></line>
                                <path d="M14.5229773,5.26320145 C12.3388736,8.51203302 10.2536779,9.108569 8.26739012,7.05280939" id="路径-8" stroke="#9F9F9F" stroke-linecap="round"></path>
                                <path d="M8.26739012,7.05280939 L14.1898587,1.39187261 C14.9883385,0.628653163 16.2543458,0.657237262 17.0175652,1.45571698 C17.0208672,1.45917149 17.0241567,1.46263783 17.0274339,1.46611592 L22.346103,7.1109632 C23.1893494,8.00592332 23.1795092,9.40584537 22.3237654,10.2888632 L20.5714568,12.0970207 L20.5714568,12.0970207" id="路径-9" stroke="#9F9F9F" stroke-linecap="round"></path>
                            </g>
                        </g>
                    </g>
                </g>
            </g>
        </g>
    </g>
</svg>