<?xml version="1.0" encoding="UTF-8"?>
<svg width="22px" height="21px" viewBox="0 0 22 21" version="1.1" xmlns="http://www.w3.org/2000/svg" xmlns:xlink="http://www.w3.org/1999/xlink">
    <title>icon/tab/消息/1备份 3</title>
    <g id="创客宝" stroke="none" stroke-width="1" fill="none" fill-rule="evenodd">
        <g id="tab-icon" transform="translate(-226.000000, -128.000000)">
            <g id="icon/tab/消息/2" transform="translate(225.000000, 126.000000)">
                <g id="icon/tab/消息/2备份">
                    <rect id="矩形" x="0" y="0" width="24" height="24"></rect>
                    <ellipse id="椭圆形" fill-opacity="0.5" fill="#FFDFD5" cx="12" cy="19.5" rx="11" ry="3.5"></ellipse>
                    <g id="编组" transform="translate(2.000000, 2.000000)">
                        <path d="M19.3034372,8.0378728 C20.0135634,11.5875175 18.7434112,14.8839894 16.3992821,17.0214711 C16.0534815,17.3368685 17.8751097,18.797006 18.5462859,19.3161766 C18.624661,19.3765011 18.5800109,19.5 18.4816857,19.5 L10.2579965,19.5 C5.02301243,19.5 0.576529727,15.3746602 0.501004596,10.1397299 C0.415979448,4.22318035 5.74026367,-0.475004564 11.8463993,0.674010632 C15.5784807,1.37652964 18.5591109,4.31390457 19.3034372,8.0378728 Z" id="Stroke-1" stroke="#F03520"></path>
                        <path d="M6.5,10 C6.5,10.5524444 6.052,11 5.5,11 C4.948,11 4.5,10.5524444 4.5,10 C4.5,9.44755556 4.948,9 5.5,9 C6.052,9 6.5,9.44755556 6.5,10" id="Fill-3" fill="#FFA94D"></path>
                        <path d="M11,10 C11,10.5524444 10.552,11 10,11 C9.448,11 9,10.5524444 9,10 C9,9.44755556 9.448,9 10,9 C10.552,9 11,9.44755556 11,10" id="Fill-5" fill="#FFA94D"></path>
                        <path d="M15.5,10 C15.5,10.5524444 15.052,11 14.5,11 C13.948,11 13.5,10.5524444 13.5,10 C13.5,9.44755556 13.948,9 14.5,9 C15.052,9 15.5,9.44755556 15.5,10" id="Fill-7" fill="#FFA94D"></path>
                    </g>
                </g>
            </g>
        </g>
    </g>
</svg>